solid unit cube
	facet normal 0 -100 0
		outer loop
			vertex 0 0 0
			vertex 100 0 100
			vertex 0 0 100
		endloop
	endfacet
	facet normal 0 -100 0
		outer loop
			vertex 0 0 0
			vertex 100 0 0
			vertex 100 0 100
		endloop
	endfacet
	facet normal 100 0 0
		outer loop
			vertex 100 0 0
			vertex 100 100 100
			vertex 100 0 100
		endloop
	endfacet
	facet normal 100 0 0
		outer loop
			vertex 100 0 0
			vertex 100 100 0
			vertex 100 100 100
		endloop
	endfacet
	facet normal 0 100 0
		outer loop
			vertex 100 100 0
			vertex 0 100 100
			vertex 100 100 100
		endloop
	endfacet
	facet normal 0 100 0
		outer loop
			vertex 100 100 0
			vertex 0 100 0
			vertex 0 100 100
		endloop
	endfacet
	facet normal -100 0 0
		outer loop
			vertex 0 100 0
			vertex 0 0 100
			vertex 0 100 100
		endloop
	endfacet
	facet normal -100 0 0
		outer loop
			vertex 0 100 0
			vertex 0 0 0
			vertex 0 0 100
		endloop
	endfacet
	facet normal 0 0 100
		outer loop
			vertex 0 0 100
			vertex 100 100 100
			vertex 0 100 100
		endloop
	endfacet
	facet normal 0 0 100
		outer loop
			vertex 0 0 100
			vertex 100 0 100
			vertex 100 100 100
		endloop
	endfacet
	facet normal 0 0 -100
		outer loop
			vertex 0 100 0
			vertex 100 0 0
			vertex 0 0 0
		endloop
	endfacet
	facet normal 0 0 -100
		outer loop
			vertex 0 100 0
			vertex 100 100 0
			vertex 100 0 0
		endloop
	endfacet
endsolid unit cube
