solid tetrahedron irregular
	facet normal 0.2857142984867096 0.4285714626312256 0.8571429252624512
		outer loop
			vertex 3 0 0
			vertex 0 2 0
			vertex 0 0 1
		endloop
	endfacet
	facet normal 0 -1 0
		outer loop
			vertex 0 0 0
			vertex 3 0 0
			vertex 0 0 1
		endloop
	endfacet
	facet normal -1 0 0
		outer loop
			vertex 0 0 0
			vertex 0 0 1
			vertex 0 2 0
		endloop
	endfacet
	facet normal 0 0 -1
		outer loop
			vertex 0 0 0
			vertex 0 2 0
			vertex 3 0 0
		endloop
	endfacet
endsolid tetrahedron
